<svg xmlns="http://www.w3.org/2000/svg" viewBox="0 0 442.616 177.084"><defs><style>.cls-1{fill:#1a223e;}.cls-2{fill:#9dc64f;}</style></defs><title>shift2rail-logo</title><g id="Calque_2" data-name="Calque 2"><g id="Calque_1-2" data-name="Calque 1"><path class="cls-1" d="M408.892,99.944a17.655,17.655,0,0,1,1.889,5.879l.016.272a17.708,17.708,0,0,1-.189,3.341,10.288,10.288,0,0,1-3.349,5.542,11.588,11.588,0,0,1-2.736,1.806h-106L312.487,44.63c2.92-.445,21.106.141,26.6,2.573,20.65,9.135,63.559,40.367,69.805,52.741"/><path class="cls-1" d="M307.839,130.334a107.9,107.9,0,0,0,29.469,37.525,107.9,107.9,0,0,1-29.469-37.525H407.27l2.618-1.114a24.72,24.72,0,0,0,6.391-4.093,23.844,23.844,0,0,0,7.682-12.873l.091-.41.067-.421a31.722,31.722,0,0,0,.362-4.805c0-.5-.016-.921-.028-1.248l-.016-.307c-.015-.283-.035-.562-.067-.858A31.3,31.3,0,0,0,421.1,93.7c-3.766-7.462-14.672-17.734-27.458-27.73h0c-17.124-13.389-37.628-26.282-48.935-31.284-3.113-1.377-7.749-2.727-23.448-3.412h0c-2.8-.122-5.947-.224-9.5-.3-4.94-.106-10.666-.165-17.317-.165-2.385,0-4.9.011-7.489.023A88.5,88.5,0,0,1,336.277,1.8h0a88.773,88.773,0,0,1,62.8,10.476v0a88.787,88.787,0,0,1,40.056,51.579q-3.549-4.231,0,0a88.612,88.612,0,0,1-85.055,113.226c-1.213,0-2.413-.024-3.613-.071a108.266,108.266,0,0,1-13.011-9.04,108.027,108.027,0,0,0,13.011,9.04,87.987,87.987,0,0,1-74.713-46.679Z"/><path class="cls-2" d="M143.462,116.782l1.169-6.021,25.683-25.042c2.472-2.421,3.932-4.77,4.416-7.269.755-3.893-1.193-7.344-6.742-7.344-4.549,0-8.642,3.231-10.252,7.93l-6.3-.878A19.017,19.017,0,0,1,169.255,65.38c8.324,0,13.944,4.4,12.287,12.924a20.679,20.679,0,0,1-5.872,9.985l-23.109,22.542h22.118l-1.154,5.951Z"/><path class="cls-1" d="M69.339,116.578l4.632-23.83c1.185-6.1-.169-9.866-6.832-9.866A11.886,11.886,0,0,0,55.6,92.748l-4.632,23.83H44.388L55.71,58.332h6.577L57.733,81.756h.24A17.386,17.386,0,0,1,70.091,76.38c7.623,0,12.751,4.573,10.96,13.8l-5.131,26.4Z"/><path class="cls-1" d="M92.091,67.315l1.279-6.58h6.58l-1.279,6.58Zm-9.575,49.261,7.737-39.8h6.576l-7.733,39.8Z"/><path class="cls-1" d="M209.592,116.577l-5.9-24.55H191.1l-4.77,24.55h-7.056l10.854-55.845h22.783c9.063,0,14.923,6.183,13.16,15.25-1.48,7.619-7.45,13.157-15.014,15.321l6.4,25.274Zm.827-49.662h-14.44L192.3,85.849H206.42c6.1,0,11.354-3.531,12.586-9.867,1.22-6.257-2.491-9.067-8.587-9.067"/><path class="cls-1" d="M256.552,89.218l-5.317,27.36h-6.663l.673-3.452-.066-.078c-1.9,2.325-6.4,4.01-11.768,4.01-9.071,0-13.16-4.971-11.83-11.8,1.2-6.175,6.45-11.716,14.955-11.716h12.515l.874-4.487c.838-4.337-1.468-6.5-7.883-6.5-4.979,0-7.966,1.365-10.142,3.451L228.586,81.6c3.641-3.448,8.958-5.211,14.416-5.211,8.584,0,15.514,2.723,13.55,12.834M235.383,111.04c5.132,0,10.551-1.44,11.7-7.383l.9-4.652H237.079c-5.136,0-8.446,2.169-9.166,5.857-.732,3.77,1.61,6.178,7.47,6.178"/><path class="cls-1" d="M266.464,67.315l1.279-6.58h6.58l-1.279,6.58Zm-9.575,49.261,7.737-39.8H271.2l-7.733,39.8Z"/><path class="cls-2" d="M281.526,110.56c-2.724,0-3.826-1.362-3.357-3.77l9.421-48.463h-.035l1.007-5.171c1.327-6.816-2.215-9.225-7.993-9.225H23.239c-5.269,0-9.4,2.409-10.724,9.225L9.1,70.728l-.161.831-.382,1.979c-1.126,5.774.5,9.788,7.324,9.788h3.369l0,.027H35.18c2.408,0,3.506,1.362,2.975,4.093L37.9,88.777h-.023l-3.5,18.013c-.468,2.408-1.944,3.561-4.447,3.561H1.212L0,116.577H29.524c5.306,0,9.458-2.4,10.78-9.229L43.8,89.375l.118-.6.429-2.212c1.121-5.778-.5-9.788-7.32-9.788H29.147l0-.031H17.718c-2.409,0-3.507-1.366-2.975-4.093l.373-1.925H15.1l3.306-17.009a4.216,4.216,0,0,1,4.466-3.771H278.515c2.731,0,3.829,1.366,3.357,3.771l-9.418,48.462h.032l-1,5.167c-1.326,6.825,2.216,9.229,8,9.229h12.192l1.169-6.017Z"/><path class="cls-1" d="M121.464,76.783h-8.957l1.48-7.623c.547-2.81,1.806-5.136,5.25-5.136h4.1l1.184-6.1h-4.734c-5.773,0-10.925,3.369-12.3,10.429l-1.641,8.426h-4.892l-1.125,5.778h4.9L98.115,116.58h6.655l6.615-34.019,8.962-.036Z"/><path class="cls-1" d="M136.225,82.48h6.1l1.106-5.7h-6.1l1.921-9.866h-6.581l-1.916,9.866h-5.124L124.517,82.5l5.128-.02-4.817,24.79c-1.173,6.018,2.038,9.308,7.418,9.308h4.731l1.153-5.935h-3.448c-3.29,0-3.447-2.491-2.963-4.979Z"/></g></g></svg>